<?xml version="1.0" standalone="no"?>
<!DOCTYPE svg PUBLIC "-//W3C//DTD SVG 1.1//EN" "http://www.w3.org/Graphics/SVG/1.1/DTD/svg11.dtd" >
<svg>
<metadata>
Created by FontForge 20110222 at Mon Mar  7 04:43:22 2011
 By www-data
(C) 1995 Benn Coifman zephyr@cory.eecs.berkeley.edu
</metadata>
<defs>
<font id="Gotthard" horiz-adv-x="864" >
  <font-face 
    font-family="Gotthard"
    font-weight="400"
    font-stretch="normal"
    units-per-em="1150"
    panose-1="0 0 4 0 0 0 0 0 0 0"
    ascent="1000"
    descent="-150"
    x-height="560"
    cap-height="770"
    bbox="-46 -142 1692 999"
    underline-thickness="20"
    underline-position="-123"
    unicode-range="U+0020-2022"
  />
    <missing-glyph />
    <glyph glyph-name="space" unicode=" " horiz-adv-x="500" 
 />
    <glyph glyph-name="exclam" unicode="!" horiz-adv-x="237" 
d="M182 800l-20 -657h-87l-20 657h127zM182 -7q0 -26 -18.5 -44.5t-45.5 -18.5q-26 0 -44.5 18.5t-18.5 44.5q0 27 18.5 45.5t44.5 18.5q27 0 45.5 -18.5t18.5 -45.5z" />
    <glyph glyph-name="quotedbl" unicode="&#x22;" horiz-adv-x="447" 
d="M392 805q0 -18 -30 -74l-40 -74q-17 37 -33 74q-24 56 -24 76q0 26 18.5 44.5t44.5 18.5q27 0 45.5 -19t18.5 -46zM182 805q0 -18 -30 -74l-40 -74q-17 37 -33 74q-24 56 -24 76q0 26 18.5 44.5t44.5 18.5q27 0 45.5 -19t18.5 -46z" />
    <glyph glyph-name="numbersign" unicode="#" horiz-adv-x="790" 
d="M725 247h-127v-127h-126v127h-154v-127h-126v127h-127v126h127v154h-127v126h127v127h126v-127h154v127h126v-127h127v-126h-127v-154h127v-126zM472 373v154h-154v-154h154z" />
    <glyph glyph-name="dollar" unicode="$" horiz-adv-x="823" 
d="M758 224q0 -93 -66 -158.5t-159 -65.5h-57v-81h-127v81h-284v127h284v194h-59q-93 0 -159 65.5t-66 157.5q0 93 66 158.5t159 65.5h59v81h127v-81h242v-127h-242v-193h57q93 0 159 -65.5t66 -158.5zM349 448v193h-59q-40 0 -68.5 -28.5t-28.5 -67.5q0 -40 28.5 -68.5
t68.5 -28.5h59zM630 224q0 40 -28.5 68.5t-68.5 28.5h-57v-194h57q40 0 68.5 28.5t28.5 68.5z" />
    <glyph glyph-name="percent" unicode="%" horiz-adv-x="737" 
d="M318 645q0 -53 -37 -90t-90 -37q-52 0 -89 37t-37 90q0 52 37 89t89 37q53 0 90 -37t37 -89zM668 771l-452 -771h-147l453 771h146zM672 126q0 -52 -37 -89t-89 -37q-53 0 -90 37t-37 89q0 53 37 90t90 37q52 0 89 -37t37 -90zM255 645q0 26 -18.5 44.5t-45.5 18.5
q-26 0 -44.5 -18.5t-18.5 -44.5q0 -27 18.5 -45.5t44.5 -18.5q27 0 45.5 18.5t18.5 45.5zM609 126q0 27 -18.5 45.5t-44.5 18.5q-27 0 -45.5 -18.5t-18.5 -45.5q0 -26 18.5 -44.5t45.5 -18.5q26 0 44.5 18.5t18.5 44.5z" />
    <glyph glyph-name="ampersand" unicode="&#x26;" horiz-adv-x="851" 
d="M786 31l-120 80l-62 -85q-3 -4 -24.5 -15t-27.5 -11h-328q-58 0 -108.5 44t-50.5 100v122q0 45 147 148l-119 79q-5 3 -16.5 24.5t-11.5 28.5v160q0 25 19.5 44.5t44.5 19.5h403q25 0 44.5 -19.5t19.5 -44.5v-160q0 -7 -11.5 -28t-16.5 -25l-120 -83l187 -125l41 57
l104 -76l-39 -52l45 -30v-153zM468 593v25q0 10 -8.5 17t-17.5 7h-223q-13 0 -22 -11q-4 -6 -4 -14v-23q0 -14 12 -22l129 -86l123 86q11 7 11 21zM560 182l-225 149l-127 -88q-15 -11 -15 -28v-50q0 -22 13 -31q8 -6 20 -6h4h273q1 0 3 -1h2q12 0 22 14z" />
    <glyph glyph-name="quotesingle" unicode="'" horiz-adv-x="237" 
d="M182 805q0 -18 -30 -74l-40 -74q-17 37 -33 74q-24 56 -24 76q0 26 18.5 44.5t44.5 18.5q27 0 45.5 -19t18.5 -46z" />
    <glyph glyph-name="parenleft" unicode="(" horiz-adv-x="333" 
d="M278 -128q-92 0 -157.5 66t-65.5 158v577q0 93 65.5 158.5t157.5 65.5v-127q-40 0 -68 -28.5t-28 -68.5v-576q0 -40 28 -68.5t68 -28.5v-128z" />
    <glyph glyph-name="parenright" unicode=")" horiz-adv-x="333" 
d="M278 96q0 -92 -65.5 -158t-157.5 -66v128q40 0 68 28.5t28 68.5v576q0 40 -28 68.5t-68 28.5v127q92 0 157.5 -65.5t65.5 -158.5v-577z" />
    <glyph glyph-name="asterisk" unicode="*" horiz-adv-x="605" 
d="M540 526l-111 -64l111 -64l-63 -110l-111 65v-129h-126v129l-112 -65l-63 110l112 64l-112 64l63 110l112 -65v129h126v-129l111 65z" />
    <glyph glyph-name="plus" unicode="+" horiz-adv-x="536" 
d="M471 287h-140v-140h-126v140h-140v126h140v140h126v-140h140v-126z" />
    <glyph glyph-name="comma" unicode="," horiz-adv-x="237" 
d="M182 -7q0 -29 -19 -45l-108 -90v135q0 27 18.5 45.5t44.5 18.5q27 0 45.5 -18.5t18.5 -45.5z" />
    <glyph glyph-name="hyphen" unicode="-" horiz-adv-x="361" 
d="M296 282h-231v131h231v-131z" />
    <glyph glyph-name="hyphen" unicode="&#x2010;" horiz-adv-x="361" 
d="M296 282h-231v131h231v-131z" />
    <glyph glyph-name="period" unicode="." horiz-adv-x="237" 
d="M182 -7q0 -26 -18.5 -44.5t-45.5 -18.5q-26 0 -44.5 18.5t-18.5 44.5q0 27 18.5 45.5t44.5 18.5q27 0 45.5 -18.5t18.5 -45.5z" />
    <glyph glyph-name="slash" unicode="/" horiz-adv-x="747" 
d="M747 917l-601 -1025h-146l601 1025h146z" />
    <glyph glyph-name="zero" unicode="0" horiz-adv-x="1078" 
d="M968 225q0 -101 -61.5 -163t-162.5 -62h-410q-98 0 -161 63t-63 162v320q0 94 65 159.5t159 65.5h410q96 0 160 -64t64 -161v-320zM838 225v320q0 43 -26 69t-68 26h-410q-40 0 -67 -27t-27 -68v-320q0 -95 94 -95h410q94 0 94 95z" />
    <glyph glyph-name="one" unicode="1" horiz-adv-x="571" 
d="M461 0h-137v597l-35 -37h-157l220 210h109v-770z" />
    <glyph glyph-name="two" unicode="2" horiz-adv-x="1078" 
d="M968 545q0 -93 -65.5 -159t-158.5 -66h-410q-40 0 -67 -27t-27 -68v-95h728v-130h-858v225q0 95 65 160t159 65h410q39 0 66.5 28t27.5 67t-27.5 67t-66.5 28h-634v130h634q93 0 158.5 -66t65.5 -159z" />
    <glyph glyph-name="three" unicode="3" horiz-adv-x="1078" 
d="M968 225q0 -93 -65.5 -159t-158.5 -66h-634v130h634q39 0 66.5 28t27.5 67t-27.5 67t-66.5 28h-634v130h634q39 0 66.5 28t27.5 67t-27.5 67t-66.5 28h-634v130h634q93 0 158.5 -66t65.5 -159q0 -85 -67 -160q67 -74 67 -160z" />
    <glyph glyph-name="four" unicode="4" horiz-adv-x="1078" 
d="M968 160h-159v-160h-130v160h-569v138l582 472h117v-480h159v-130zM679 290v329l-414 -329h414z" />
    <glyph glyph-name="five" unicode="5" horiz-adv-x="1078" 
d="M968 225q0 -93 -65.5 -159t-158.5 -66h-634v130h634q39 0 66.5 28t27.5 67t-27.5 67t-66.5 28h-634v450h847v-130h-717v-190h504q93 0 158.5 -66t65.5 -159z" />
    <glyph glyph-name="six" unicode="6" horiz-adv-x="1078" 
d="M968 225q0 -93 -66 -159t-158 -66h-410q-92 0 -158 66t-66 159v320q0 93 65.5 159t158.5 66h634v-130h-634q-39 0 -66.5 -28t-27.5 -67v-115q56 20 94 20h410q93 0 158.5 -66t65.5 -159zM838 225q0 39 -27.5 67t-66.5 28h-410q-39 0 -66.5 -28t-27.5 -67t27.5 -67
t66.5 -28h410q39 0 66.5 28t27.5 67z" />
    <glyph glyph-name="seven" unicode="7" horiz-adv-x="1078" 
d="M968 630l-518 -630h-175l525 640h-690v130h858v-140z" />
    <glyph glyph-name="eight" unicode="8" horiz-adv-x="1078" 
d="M968 225q0 -93 -65.5 -159t-158.5 -66h-410q-93 0 -158.5 66t-65.5 159q0 85 67 160q-67 74 -67 160q0 93 65.5 159t158.5 66h410q93 0 158.5 -66t65.5 -159q0 -85 -67 -160q67 -74 67 -160zM838 545q0 39 -27.5 67t-66.5 28h-410q-39 0 -66.5 -28t-27.5 -67t27.5 -67
t66.5 -28h410q39 0 66.5 28t27.5 67zM838 225q0 39 -27.5 67t-66.5 28h-410q-39 0 -66.5 -28t-27.5 -67t27.5 -67t66.5 -28h410q39 0 66.5 28t27.5 67z" />
    <glyph glyph-name="nine" unicode="9" horiz-adv-x="1078" 
d="M968 225q0 -93 -65.5 -159t-158.5 -66h-634v130h634q39 0 66.5 28t27.5 67v115q-56 -20 -94 -20h-410q-93 0 -158.5 66t-65.5 159t66 159t158 66h410q92 0 158 -66t66 -159v-320zM838 545q0 39 -27.5 67t-66.5 28h-410q-39 0 -66.5 -28t-27.5 -67t27.5 -67t66.5 -28h410
q39 0 66.5 28t27.5 67z" />
    <glyph glyph-name="colon" unicode=":" horiz-adv-x="237" 
d="M182 320q0 -27 -18.5 -45.5t-45.5 -18.5q-26 0 -44.5 18.5t-18.5 45.5q0 26 18.5 44.5t44.5 18.5q27 0 45.5 -18.5t18.5 -44.5zM182 -7q0 -26 -18.5 -44.5t-45.5 -18.5q-26 0 -44.5 18.5t-18.5 44.5q0 27 18.5 45.5t44.5 18.5q27 0 45.5 -18.5t18.5 -45.5z" />
    <glyph glyph-name="semicolon" unicode=";" horiz-adv-x="237" 
d="M182 320q0 -27 -18.5 -45.5t-45.5 -18.5q-26 0 -44.5 18.5t-18.5 45.5q0 26 18.5 44.5t44.5 18.5q27 0 45.5 -18.5t18.5 -44.5zM182 -7q0 -29 -19 -45l-108 -90v135q0 27 18.5 45.5t44.5 18.5q27 0 45.5 -18.5t18.5 -45.5z" />
    <glyph glyph-name="equal" unicode="=" horiz-adv-x="536" 
d="M471 427h-406v126h406v-126zM471 147h-406v126h406v-126z" />
    <glyph glyph-name="question" unicode="?" horiz-adv-x="749" 
d="M694 576q0 -93 -65 -159t-158 -66q-41 0 -68.5 -27.5t-27.5 -69.5v-111h-127v111q0 95 64.5 160t158.5 65q40 0 68.5 28t28.5 69q0 39 -28.5 67.5t-68.5 28.5h-193q-36 0 -62.5 -22.5t-32.5 -57.5h-128q6 88 70.5 148t152.5 60h193q93 0 158 -65.5t65 -158.5zM375 -7
q0 -26 -18.5 -44.5t-45.5 -18.5q-26 0 -44.5 18.5t-18.5 44.5q0 27 18.5 45.5t44.5 18.5q27 0 45.5 -18.5t18.5 -45.5z" />
    <glyph glyph-name="at" unicode="@" horiz-adv-x="936" 
d="M868 303q0 -79 -48 -127t-127 -48q-68 0 -124 49q-57 -49 -126 -49q-76 0 -125.5 49.5t-49.5 125.5v63q0 76 49.5 126t125.5 50q34 0 76 -49v49h99v-239q0 -75 75 -75t75 75v264q0 34 -20.5 54.5t-54.5 20.5h-450q-33 0 -54.5 -21.5t-21.5 -53.5v-462q0 -76 76 -76h450
v-100h-450q-77 0 -126 49t-49 127v462q0 73 50.5 124t124.5 51h450q75 0 125 -50t50 -125v-264zM519 303v63q0 75 -76 75q-75 0 -75 -75v-63q0 -75 75 -75q76 0 76 75z" />
    <glyph glyph-name="A" unicode="A" horiz-adv-x="1232" 
d="M1144 0h-158l-98 160h-544l-98 -160h-158l457 770h142zM809 290l-193 314l-193 -314h386z" />
    <glyph glyph-name="B" unicode="B" horiz-adv-x="1188" 
d="M1078 225q0 -93 -65.5 -159t-157.5 -66h-745v770h745q92 0 157.5 -66t65.5 -159q0 -85 -66 -160q66 -74 66 -160zM949 545q0 39 -27.5 67t-66.5 28h-616v-190h616q39 0 66.5 28t27.5 67zM949 225q0 39 -27.5 67t-66.5 28h-616v-190h616q39 0 66.5 28t27.5 67z" />
    <glyph glyph-name="C" unicode="C" horiz-adv-x="1188" 
d="M1078 0h-745q-97 0 -160 63.5t-63 161.5v320q0 99 62.5 162t160.5 63h745v-130h-745q-94 0 -94 -95v-320q0 -44 25.5 -69.5t68.5 -25.5h745v-130z" />
    <glyph glyph-name="D" unicode="D" horiz-adv-x="1188" 
d="M1078 225q0 -93 -65.5 -159t-157.5 -66h-745v770h745q92 0 157.5 -66t65.5 -159v-320zM949 225v320q0 39 -28 67t-66 28h-616v-510h616q38 0 66 28t28 67z" />
    <glyph glyph-name="E" unicode="E" horiz-adv-x="1188" 
d="M1078 0h-968v770h968v-130h-839v-190h839v-130h-839v-190h839v-130z" />
    <glyph glyph-name="F" unicode="F" horiz-adv-x="1188" 
d="M1078 640h-839v-190h612v-130h-612v-320h-129v770h968v-130z" />
    <glyph glyph-name="G" unicode="G" horiz-adv-x="1188" 
d="M1078 0h-745q-100 0 -161.5 62t-61.5 163v320q0 97 63.5 161t159.5 64h745v-130h-745q-43 0 -68.5 -26t-25.5 -69v-320q0 -95 94 -95h616v190h-283v130h412v-450z" />
    <glyph glyph-name="H" unicode="H" horiz-adv-x="1188" 
d="M1078 0h-129v320h-710v-320h-129v770h129v-320h710v320h129v-770z" />
    <glyph glyph-name="I" unicode="I" horiz-adv-x="349" 
d="M239 0h-129v770h129v-770z" />
    <glyph glyph-name="J" unicode="J" horiz-adv-x="1111" 
d="M1001 770v-545q0 -100 -62.5 -162.5t-161.5 -62.5h-667v130h667q95 0 95 95v545h129z" />
    <glyph glyph-name="K" unicode="K" horiz-adv-x="1169" 
d="M1048 0h-225l-584 320v-320h-129v770h129v-320l581 320h225l-701 -385z" />
    <glyph glyph-name="L" unicode="L" horiz-adv-x="1188" 
d="M1078 0h-968v770h129v-640h839v-130z" />
    <glyph glyph-name="M" unicode="M" horiz-adv-x="1393" 
d="M1283 0h-129v604l-390 -604h-135l-391 604v-604h-128v770h180l406 -615l406 615h181v-770z" />
    <glyph glyph-name="N" unicode="N" horiz-adv-x="1188" 
d="M1078 0h-181l-658 629v-629h-129v770h181l658 -629v629h129v-770z" />
    <glyph glyph-name="O" unicode="O" horiz-adv-x="1188" 
d="M1078 225q0 -101 -61.5 -163t-161.5 -62h-522q-98 0 -160.5 63t-62.5 162v320q0 94 65 159.5t158 65.5h522q96 0 159.5 -64t63.5 -161v-320zM949 225v320q0 43 -26 69t-68 26h-522q-40 0 -67 -27t-27 -68v-320q0 -95 94 -95h522q94 0 94 95z" />
    <glyph glyph-name="P" unicode="P" horiz-adv-x="1188" 
d="M1078 545q0 -93 -65.5 -159t-157.5 -66h-616v-320h-129v770h745q92 0 157.5 -66t65.5 -159zM949 545q0 39 -27.5 67t-66.5 28h-616v-190h616q39 0 66.5 28t27.5 67z" />
    <glyph glyph-name="Q" unicode="Q" horiz-adv-x="1188" 
d="M1078 227q0 -162 -157 -217l69 -87h-143l-65 80h-449q-98 0 -160.5 62.5t-62.5 161.5v319q0 94 65 159t158 65h522q96 0 159.5 -64t63.5 -160v-319zM949 227v319q0 42 -26 68t-68 26h-522q-40 0 -67 -27t-27 -67v-319q0 -95 94 -95h345l-63 80h143l64 -80h33q94 0 94 95z
" />
    <glyph glyph-name="R" unicode="R" horiz-adv-x="1202" 
d="M1078 545q0 -93 -65.5 -159t-158.5 -66h-125l319 -320h-183l-320 320h-306v-320h-129v770h744q93 0 158.5 -66t65.5 -159zM949 545q0 39 -28 67t-67 28h-615v-190h615q39 0 67 28t28 67z" />
    <glyph glyph-name="S" unicode="S" horiz-adv-x="1188" 
d="M1078 640h-745q-39 0 -66.5 -28t-27.5 -67t27.5 -67t66.5 -28h522q92 0 157.5 -65.5t65.5 -159.5q0 -93 -65.5 -159t-157.5 -66h-745v130h745q39 0 66.5 28t27.5 67t-27.5 67t-66.5 28h-522q-92 0 -157.5 66t-65.5 159t65.5 159t157.5 66h745v-130z" />
    <glyph glyph-name="T" unicode="T" horiz-adv-x="1188" 
d="M1078 640h-419v-640h-130v640h-419v130h968v-130z" />
    <glyph glyph-name="U" unicode="U" horiz-adv-x="1188" 
d="M1078 770v-545q0 -98 -63 -161.5t-160 -63.5h-522q-93 0 -158 65.5t-65 159.5v545h129v-545q0 -41 27 -68t67 -27h522q43 0 68.5 25.5t25.5 69.5v545h129z" />
    <glyph glyph-name="V" unicode="V" horiz-adv-x="1122" 
d="M1035 770l-404 -770h-140l-404 770h148l326 -595l326 595h148z" />
    <glyph glyph-name="W" unicode="W" horiz-adv-x="1364" 
d="M1281 770l-260 -770h-137l-202 562l-202 -562h-137l-260 770h138l191 -565l190 565h160l190 -565l191 565h138z" />
    <glyph glyph-name="X" unicode="X" horiz-adv-x="1122" 
d="M1024 0h-162l-301 295l-301 -295h-162l382 385l-382 385h162l301 -295l301 295h162l-382 -385z" />
    <glyph glyph-name="Y" unicode="Y" horiz-adv-x="1122" 
d="M1026 770l-400 -448v-322h-130v322l-400 448h153l312 -331l312 331h153z" />
    <glyph glyph-name="Z" unicode="Z" horiz-adv-x="1188" 
d="M1078 0h-968v137l721 503h-721v130h968v-137l-721 -503h721v-130z" />
    <glyph glyph-name="bracketleft" unicode="[" horiz-adv-x="554" 
d="M414 756h-13l-38 183h-151l-46 -182h-11l50 192h168zM477 675q-28 59 -96 52q-53 -5 -76 -58q0 7 1 9q20 53 77 57q34 2 61 -12q33 -17 33 -48zM478 635q-27 60 -95 53q-54 -6 -76 -59v10q21 53 77 56q34 2 61 -12q33 -16 33 -48zM401 520h-10v69h10v-69zM307 601h-42v11
h42v-11zM271 669q-22 53 -76 58q-68 7 -95 -52q0 31 32 48q28 14 62 12q56 -4 77 -57v-9zM310 517h-10v66h10v-66zM270 629q-23 53 -76 59q-68 7 -96 -53q0 32 33 48q27 14 61 12q56 -3 77 -56q1 -2 1 -10zM474 466q0 -31 -33 -48q-27 -14 -61 -12q-56 4 -77 57q-1 2 -1 9
q23 -53 76 -58q68 -7 96 52zM271 517h-11v66h11v-66zM308 493h-41v10h41v-10zM184 520h-10v69h10v-69zM287 310h-11v101h11v-101zM411 383l-28 -264h-12l28 264h12zM265 472v-9q-21 -53 -77 -57q-34 -2 -61 12q-33 17 -33 48q27 -59 95 -52q54 5 76 58zM304 241l-17 -11h-26
v13h26l17 11v-13zM188 123h-12l-29 264h11zM374 84q0 -30 -35 -54q-31 -21 -63 -21q-26 -1 -53 21t-37 50q-1 2 -1 9q10 -23 34 -46q29 -26 55 -27q68 -1 100 68z" />
    <glyph glyph-name="backslash" unicode="\" horiz-adv-x="299" 
d="M273 571l-17 -17l5 17v28l12 -2v-26zM43 555l-17 17v26l12 2v-28zM234 280h-18v151q0 32 -12 46q-20 26 -50 28q-35 1 -63 -47v-178h-18v237h18v-31q24 37 63 35q35 -2 63 -32q17 -18 17 -59v-150z" />
    <glyph glyph-name="bracketright" unicode="]" horiz-adv-x="452" 
d="M417 340q0 -23 -17.5 -38.5t-41.5 -16.5q-26 -2 -45.5 14.5t-19.5 40.5q1 23 19 38t43 15q29 0 48 -19v283l-257 -67v-315q1 -5 1 -8q0 -23 -17.5 -39t-41.5 -17q-25 -1 -45 15.5t-20 40.5q1 23 19.5 38t42.5 15q29 0 48 -19v405l283 74l1 -119h-1v-313q1 -5 1 -8z" />
    <glyph glyph-name="underscore" unicode="_" horiz-adv-x="500" 
d="M500 -120h-500v120h500v-120z" />
    <glyph glyph-name="grave" unicode="`" horiz-adv-x="467" 
d="M403 812l-338 128h169z" />
    <glyph glyph-name="a" unicode="a" horiz-adv-x="896" 
d="M840 0h-136l-69 112h-374l-69 -112h-136l336 560h112zM566 224l-117 189l-118 -189h235z" />
    <glyph glyph-name="b" unicode="b" 
d="M784 168q0 -69 -49 -118.5t-119 -49.5h-535v560h535q70 0 119 -49t49 -119q0 -63 -43 -111q43 -49 43 -113zM672 392q0 23 -16.5 40t-39.5 17h-424v-113h424q23 0 39.5 16.5t16.5 39.5zM672 168q0 23 -16.5 39.5t-39.5 16.5h-424v-112h424q23 0 39.5 16.5t16.5 39.5z" />
    <glyph glyph-name="c" unicode="c" 
d="M784 0h-536q-72 0 -119.5 47.5t-47.5 120.5v224q0 74 47 121t120 47h536v-111h-536q-56 0 -56 -57v-224q0 -56 56 -56h536v-112z" />
    <glyph glyph-name="d" unicode="d" 
d="M784 168q0 -69 -49 -118.5t-119 -49.5h-535v560h535q70 0 119 -49t49 -119v-224zM672 168v224q0 23 -16.5 40t-39.5 17h-424v-337l424 1q23 0 39.5 16t16.5 39z" />
    <glyph glyph-name="e" unicode="e" 
d="M784 0h-703v560h703v-111h-592v-113h592v-112h-592v-112h592v-112z" />
    <glyph glyph-name="f" unicode="f" 
d="M784 449h-592v-113h432v-112h-432v-224h-111v560h703v-111z" />
    <glyph glyph-name="g" unicode="g" 
d="M784 0h-536q-75 0 -121 46.5t-46 121.5v224q0 72 47.5 120t119.5 48h536v-111h-536q-56 0 -56 -57v-224q0 -56 56 -56h424v112h-200v112h312v-336z" />
    <glyph glyph-name="h" unicode="h" 
d="M784 0h-112v224h-480v-224h-111v560h111v-224h480v224h112v-560z" />
    <glyph glyph-name="i" unicode="i" horiz-adv-x="272" 
d="M192 0h-111v560h111v-560z" />
    <glyph glyph-name="j" unicode="j" horiz-adv-x="808" 
d="M728 168q0 -74 -47 -121t-121 -47h-479v112h479q56 0 56 56v392h112v-392z" />
    <glyph glyph-name="k" unicode="k" horiz-adv-x="850" 
d="M794 0h-203l-399 216v-216h-111v560h111v-216l397 216h202l-513 -279z" />
    <glyph glyph-name="l" unicode="l" 
d="M784 0h-703v560h111v-448h592v-112z" />
    <glyph glyph-name="m" unicode="m" horiz-adv-x="1013" 
d="M933 0h-112v398l-261 -398h-107l-261 398v-398h-111v560h143l282 -422l283 422h144v-560z" />
    <glyph glyph-name="n" unicode="n" 
d="M784 0h-142l-450 427v-427h-111v560h142l449 -427v427h112v-560z" />
    <glyph glyph-name="o" unicode="o" 
d="M784 168q0 -75 -46 -121.5t-122 -46.5h-368q-73 0 -120 47t-47 121v224q0 71 48.5 119.5t118.5 48.5h368q72 0 120 -48t48 -120v-224zM672 168v224q0 57 -56 57h-368q-24 0 -40 -16.5t-16 -40.5v-224q0 -56 56 -56h368q56 0 56 56z" />
    <glyph glyph-name="p" unicode="p" 
d="M784 392q0 -69 -49 -118.5t-119 -49.5h-424v-224h-111v560h535q70 0 119 -49t49 -119zM672 392q0 23 -16.5 40t-39.5 17h-424v-113h424q23 0 39.5 16.5t16.5 39.5z" />
    <glyph glyph-name="q" unicode="q" 
d="M784 168q0 -121 -104 -158l54 -66h-128l-46 56h-312q-73 0 -120 47t-47 121v224q0 71 48.5 119.5t118.5 48.5h368q73 0 120.5 -48t47.5 -120v-224zM672 168v224q0 57 -56 57h-368q-24 0 -40 -16.5t-16 -40.5v-224q0 -56 56 -56h221l-45 56h128l46 -56h18q56 0 56 56z" />
    <glyph glyph-name="r" unicode="r" horiz-adv-x="874" 
d="M778 393q0 -69 -49 -118.5t-117 -49.5h-64l223 -224h-156l-224 224h-200v-224h-110v559h531q68 0 117 -49t49 -118zM667 393q0 23 -16 39.5t-39 16.5h-421v-113h421q23 0 39 16.5t16 40.5z" />
    <glyph glyph-name="s" unicode="s" 
d="M784 168q0 -69 -49 -118.5t-119 -49.5h-535v112l535 1q23 0 39.5 16t16.5 39t-16.5 39.5t-39.5 16.5h-368q-69 0 -118 49.5t-49 118.5q0 70 49 119t118 49h536v-111h-536q-23 0 -39.5 -17t-16.5 -40t16.5 -39.5t39.5 -16.5h368q70 0 119 -49t49 -119z" />
    <glyph glyph-name="t" unicode="t" 
d="M784 449h-296v-449h-112v449h-295v111h703v-111z" />
    <glyph glyph-name="u" unicode="u" 
d="M784 168q0 -73 -47.5 -120.5t-120.5 -47.5h-368q-70 0 -118.5 48.5t-48.5 119.5v392h111v-392q0 -24 16 -40t40 -16h368q56 0 56 56v392h112v-392z" />
    <glyph glyph-name="v" unicode="v" horiz-adv-x="816" 
d="M760 560l-297 -560h-111l-296 560h128l224 -406l225 406h127z" />
    <glyph glyph-name="w" unicode="w" horiz-adv-x="992" 
d="M936 560l-192 -560h-111l-137 374l-136 -374h-112l-192 560h120l128 -374l128 374h128l128 -374l129 374h119z" />
    <glyph glyph-name="x" unicode="x" horiz-adv-x="816" 
d="M760 0h-144l-208 202l-208 -202h-144l280 279l-280 281h144l208 -202l208 202h144l-280 -281z" />
    <glyph glyph-name="y" unicode="y" horiz-adv-x="816" 
d="M760 560l-297 -328v-232h-111v232l-296 328h136l216 -226l216 226h136z" />
    <glyph glyph-name="z" unicode="z" 
d="M784 0h-703v112l485 337h-485v111h703v-111l-486 -337h486v-112z" />
    <glyph glyph-name="braceleft" unicode="{" horiz-adv-x="1846" 
d="M1692 385l-385 -385h-207l308 308h-408v-308h-154v308h-408l308 -308h-207l-385 385l385 385h207l-308 -308h408v308h154v-308h408l-308 308h207z" />
    <glyph glyph-name="bar" unicode="|" horiz-adv-x="1014" 
d="M958 960q-6 -27 -31 -54q-28 -29 -36 -49q-11 -26 -11 -53q0 -20 8.5 -56.5t8.5 -57.5q0 -23 -7 -45q-17 -58 -34 -89.5t-57 -80.5q-6 -7 7 -35l5 -11q12 -26 12 -53q0 -16 -7 -56q-7 -36 -5 -62q1 -14 8 -46q6 -27 5 -47q-1 -31 -16 -69q-19 -52 -21 -57q2 -5 -2 -26
q-3 -10 -9 -12q-17 -8 -45 0q-7 2 -9 9q-2 11 3.5 18.5t12.5 13.5q3 3 8 12q6 15 3 23q-6 1 -16 2t-13 5q-5 11 -2 20q5 4 13 16q3 5 3 10q0 14 -38 25q-45 13 -57 26q-6 7 -17 39q-9 23 -25 22q-77 -1 -156 -37q-20 -9 -20 -38q0 -11 3.5 -33.5t4.5 -32.5q0 -18 10 -106
q1 -16 -22.5 -20.5t-40.5 -0.5q-3 1 -11 9q-4 7 0 15q4 4 11 12q9 12 9 19q-17 38 -45 114q-3 9 -15.5 31t-14.5 24q-16 10 -31 20q-8 3 -41 4q-7 1 -26 -34q-17 -30 -24 -51q-11 -23 -39 -108q-4 -12 -16.5 -19t-45.5 -2q-9 2 -14.5 10t-0.5 17q1 2 15 7q11 4 23 27
q6 12 6 28q1 22 2 29q7 20 21 66q5 14 9.5 28t1.5 30t-11 28q-12 15 -15 22q-6 13 -2 40q1 12 9 22.5t7 13.5q-3 13 -21 21q-22 10 -27 18q-22 32 -19 71q1 24 22 61q-5 7 -25 29q-12 14 -24 42q37 -12 88 -39q2 -1 5 -1q4 0 11.5 5t11.5 6q21 4 59 3q5 0 15 -5.5t14 -5.5
q3 0 6 2q9 5 55 41q0 -16 2 -23t1 -25v-17q-2 -9 -16 -18q-5 -4 -5 -6q0 -1 7 -10t9 -23q22 6 73 16q38 7 62 8q15 1 36 0q24 -1 40 -1q49 -5 163 -2q21 3 35.5 10.5t34.5 28.5q28 29 52 74q20 35 20 78q0 12 -1.5 35t-1.5 35q0 41 16 75q30 58 84 108q17 16 31 11
q11 -3 7 -18zM245 498q-10 10 -23 10t-21 -10q8 -8 21 -8t23 8zM156 498q-10 9 -23 9q-12 0 -20 -9q7 -9 21 -9q13 0 22 9z" />
    <glyph glyph-name="braceright" unicode="}" horiz-adv-x="834" 
d="M754 250q0 -108 -110 -190q-96 -71 -227 -93q-131 22 -227 93q-110 82 -110 190v520h674v-520zM661 340v151h-168v168h-152v-168h-168v-151h168v-168h152v168h168z" />
    <glyph glyph-name="asciitilde" unicode="~" horiz-adv-x="468" 
d="M403 412l-90 -109q-19 -19 -46 -19q-26 0 -44.5 18.5t-18.5 45.5l-139 -65l90 109q19 19 46 19q26 0 44.5 -18.5t18.5 -44.5z" />
    <glyph glyph-name="Adieresis" unicode="&#xc4;" horiz-adv-x="1232" 
d="M1144 0h-158l-98 160h-544l-98 -160h-158l457 770h142zM809 290l-193 314l-193 -314h386zM788 877q0 -27 -18.5 -45.5t-45.5 -18.5q-26 0 -44.5 18.5t-18.5 45.5q0 26 18.5 44.5t44.5 18.5q27 0 45.5 -18.5t18.5 -44.5zM578 877q0 -27 -18.5 -45.5t-45.5 -18.5
q-26 0 -44.5 18.5t-18.5 45.5q0 26 18.5 44.5t44.5 18.5q27 0 45.5 -18.5t18.5 -44.5z" />
    <glyph glyph-name="Aring" unicode="&#xc5;" horiz-adv-x="1232" 
d="M1144 0h-158l-98 160h-544l-98 -160h-158l457 770h142zM809 290l-193 314l-193 -314h386zM710 904q0 -39 -28 -67t-67 -28t-67 28t-28 67t28 67t67 28t67 -28t28 -67zM678 904q0 26 -18.5 45t-44.5 19t-44.5 -19t-18.5 -45t18.5 -44.5t44.5 -18.5t44.5 18.5t18.5 44.5z
" />
    <glyph glyph-name="Ccedilla" unicode="&#xc7;" horiz-adv-x="1188" 
d="M1078 0h-451v-35h23q47 0 47 -47t-47 -47h-50v27h50q21 0 21 20t-21 20h-50v62h-267q-97 0 -160 63.5t-63 161.5v320q0 99 62.5 162t160.5 63h745v-130h-745q-94 0 -94 -95v-320q0 -44 25.5 -69.5t68.5 -25.5h745v-130z" />
    <glyph glyph-name="Eacute" unicode="&#xc9;" horiz-adv-x="1188" 
d="M1078 0h-968v770h968v-130h-839v-190h839v-130h-839v-190h839v-130zM774 940l-338 -128l169 128h169z" />
    <glyph glyph-name="Ntilde" unicode="&#xd1;" horiz-adv-x="1188" 
d="M1078 0h-181l-658 629v-629h-129v770h181l658 -629v629h129v-770zM774 941l-90 -109q-19 -19 -46 -19q-26 0 -44.5 18.5t-18.5 45.5l-139 -65l90 109q19 19 46 19q26 0 44.5 -18.5t18.5 -44.5z" />
    <glyph glyph-name="Odieresis" unicode="&#xd6;" horiz-adv-x="1188" 
d="M1078 225q0 -101 -61.5 -163t-161.5 -62h-522q-98 0 -160.5 63t-62.5 162v320q0 94 65 159.5t158 65.5h522q96 0 159.5 -64t63.5 -161v-320zM949 225v320q0 43 -26 69t-68 26h-522q-40 0 -67 -27t-27 -68v-320q0 -95 94 -95h522q94 0 94 95zM773 877q0 -27 -18.5 -45.5
t-45.5 -18.5q-26 0 -44.5 18.5t-18.5 45.5q0 26 18.5 44.5t44.5 18.5q27 0 45.5 -18.5t18.5 -44.5zM563 877q0 -27 -18.5 -45.5t-45.5 -18.5q-26 0 -44.5 18.5t-18.5 45.5q0 26 18.5 44.5t44.5 18.5q27 0 45.5 -18.5t18.5 -44.5z" />
    <glyph glyph-name="Udieresis" unicode="&#xdc;" horiz-adv-x="1188" 
d="M1078 770v-545q0 -98 -63 -161.5t-160 -63.5h-522q-93 0 -158 65.5t-65 159.5v545h129v-545q0 -41 27 -68t67 -27h522q43 0 68.5 25.5t25.5 69.5v545h129zM773 877q0 -27 -18.5 -45.5t-45.5 -18.5q-26 0 -44.5 18.5t-18.5 45.5q0 26 18.5 44.5t44.5 18.5q27 0 45.5 -18.5
t18.5 -44.5zM563 877q0 -27 -18.5 -45.5t-45.5 -18.5q-26 0 -44.5 18.5t-18.5 45.5q0 26 18.5 44.5t44.5 18.5q27 0 45.5 -18.5t18.5 -44.5z" />
    <glyph glyph-name="aacute" unicode="&#xe1;" horiz-adv-x="896" 
d="M840 0h-136l-69 112h-374l-69 -112h-136l336 560h112zM566 224l-117 189l-118 -189h235zM616 771l-338 -128l169 128h169z" />
    <glyph glyph-name="agrave" unicode="&#xe0;" horiz-adv-x="896" 
d="M840 0h-136l-69 112h-374l-69 -112h-136l336 560h112zM566 224l-117 189l-118 -189h235zM616 643l-338 128h169z" />
    <glyph glyph-name="acircumflex" unicode="&#xe2;" horiz-adv-x="896" 
d="M840 0h-136l-69 112h-374l-69 -112h-136l336 560h112zM566 224l-117 189l-118 -189h235zM616 643l-169 49l-169 -49l169 128z" />
    <glyph glyph-name="adieresis" unicode="&#xe4;" horiz-adv-x="896" 
d="M840 0h-136l-69 112h-374l-69 -112h-136l336 560h112zM566 224l-117 189l-118 -189h235zM615 708q0 -27 -18.5 -45.5t-45.5 -18.5q-26 0 -44.5 18.5t-18.5 45.5q0 26 18.5 44.5t44.5 18.5q27 0 45.5 -18.5t18.5 -44.5zM405 708q0 -27 -18.5 -45.5t-45.5 -18.5
q-26 0 -44.5 18.5t-18.5 45.5q0 26 18.5 44.5t44.5 18.5q27 0 45.5 -18.5t18.5 -44.5z" />
    <glyph glyph-name="atilde" unicode="&#xe3;" horiz-adv-x="896" 
d="M840 0h-136l-69 112h-374l-69 -112h-136l336 560h112zM566 224l-117 189l-118 -189h235zM626 772l-90 -109q-19 -19 -46 -19q-26 0 -44.5 18.5t-18.5 45.5l-139 -65l90 109q19 19 46 19q26 0 44.5 -18.5t18.5 -44.5z" />
    <glyph glyph-name="aring" unicode="&#xe5;" horiz-adv-x="896" 
d="M840 0h-136l-69 112h-374l-69 -112h-136l336 560h112zM566 224l-117 189l-118 -189h235zM542 694q0 -39 -28 -67t-67 -28t-67 28t-28 67t28 67t67 28t67 -28t28 -67zM510 694q0 26 -18.5 45t-44.5 19t-44.5 -19t-18.5 -45t18.5 -44.5t44.5 -18.5t44.5 18.5t18.5 44.5z
" />
    <glyph glyph-name="ccedilla" unicode="&#xe7;" 
d="M784 0h-320v-35h23q47 0 47 -47t-47 -47h-50v27h50q21 0 21 20t-21 20h-50v62h-189q-72 0 -119.5 47.5t-47.5 120.5v224q0 74 47 121t120 47h536v-111h-536q-56 0 -56 -57v-224q0 -56 56 -56h536v-112z" />
    <glyph glyph-name="eacute" unicode="&#xe9;" 
d="M784 0h-703v560h703v-111h-592v-113h592v-112h-592v-112h592v-112zM616 771l-338 -128l169 128h169z" />
    <glyph glyph-name="egrave" unicode="&#xe8;" 
d="M784 0h-703v560h703v-111h-592v-113h592v-112h-592v-112h592v-112zM616 643l-338 128h169z" />
    <glyph glyph-name="ecircumflex" unicode="&#xea;" 
d="M784 0h-703v560h703v-111h-592v-113h592v-112h-592v-112h592v-112zM616 643l-169 49l-169 -49l169 128z" />
    <glyph glyph-name="edieresis" unicode="&#xeb;" 
d="M784 0h-703v560h703v-111h-592v-113h592v-112h-592v-112h592v-112zM615 708q0 -27 -18.5 -45.5t-45.5 -18.5q-26 0 -44.5 18.5t-18.5 45.5q0 26 18.5 44.5t44.5 18.5q27 0 45.5 -18.5t18.5 -44.5zM405 708q0 -27 -18.5 -45.5t-45.5 -18.5q-26 0 -44.5 18.5t-18.5 45.5
q0 26 18.5 44.5t44.5 18.5q27 0 45.5 -18.5t18.5 -44.5z" />
    <glyph glyph-name="iacute" unicode="&#xed;" horiz-adv-x="272" 
d="M192 0h-111v560h111v-560zM292 771l-338 -128l169 128h169z" />
    <glyph glyph-name="igrave" unicode="&#xec;" horiz-adv-x="272" 
d="M192 0h-111v560h111v-560zM292 643l-338 128h169z" />
    <glyph glyph-name="icircumflex" unicode="&#xee;" horiz-adv-x="272" 
d="M192 0h-111v560h111v-560zM292 643l-169 49l-169 -49l169 128z" />
    <glyph glyph-name="idieresis" unicode="&#xef;" horiz-adv-x="272" 
d="M192 0h-111v560h111v-560zM291 708q0 -27 -18.5 -45.5t-45.5 -18.5q-26 0 -44.5 18.5t-18.5 45.5q0 26 18.5 44.5t44.5 18.5q27 0 45.5 -18.5t18.5 -44.5zM81 708q0 -27 -18.5 -45.5t-45.5 -18.5q-26 0 -44.5 18.5t-18.5 45.5q0 26 18.5 44.5t44.5 18.5q27 0 45.5 -18.5
t18.5 -44.5z" />
    <glyph glyph-name="ntilde" unicode="&#xf1;" 
d="M784 0h-142l-450 427v-427h-111v560h142l449 -427v427h112v-560zM616 772l-90 -109q-19 -19 -46 -19q-26 0 -44.5 18.5t-18.5 45.5l-139 -65l90 109q19 19 46 19q26 0 44.5 -18.5t18.5 -44.5z" />
    <glyph glyph-name="oacute" unicode="&#xf3;" 
d="M784 168q0 -75 -46 -121.5t-122 -46.5h-368q-73 0 -120 47t-47 121v224q0 71 48.5 119.5t118.5 48.5h368q72 0 120 -48t48 -120v-224zM672 168v224q0 57 -56 57h-368q-24 0 -40 -16.5t-16 -40.5v-224q0 -56 56 -56h368q56 0 56 56zM606 771l-338 -128l169 128h169z" />
    <glyph glyph-name="ograve" unicode="&#xf2;" 
d="M784 168q0 -75 -46 -121.5t-122 -46.5h-368q-73 0 -120 47t-47 121v224q0 71 48.5 119.5t118.5 48.5h368q72 0 120 -48t48 -120v-224zM672 168v224q0 57 -56 57h-368q-24 0 -40 -16.5t-16 -40.5v-224q0 -56 56 -56h368q56 0 56 56zM606 643l-338 128h169z" />
    <glyph glyph-name="ocircumflex" unicode="&#xf4;" 
d="M784 168q0 -75 -46 -121.5t-122 -46.5h-368q-73 0 -120 47t-47 121v224q0 71 48.5 119.5t118.5 48.5h368q72 0 120 -48t48 -120v-224zM672 168v224q0 57 -56 57h-368q-24 0 -40 -16.5t-16 -40.5v-224q0 -56 56 -56h368q56 0 56 56zM606 643l-169 49l-169 -49l169 128z
" />
    <glyph glyph-name="odieresis" unicode="&#xf6;" 
d="M784 168q0 -75 -46 -121.5t-122 -46.5h-368q-73 0 -120 47t-47 121v224q0 71 48.5 119.5t118.5 48.5h368q72 0 120 -48t48 -120v-224zM672 168v224q0 57 -56 57h-368q-24 0 -40 -16.5t-16 -40.5v-224q0 -56 56 -56h368q56 0 56 56zM605 708q0 -27 -18.5 -45.5
t-45.5 -18.5q-26 0 -44.5 18.5t-18.5 45.5q0 26 18.5 44.5t44.5 18.5q27 0 45.5 -18.5t18.5 -44.5zM395 708q0 -27 -18.5 -45.5t-45.5 -18.5q-26 0 -44.5 18.5t-18.5 45.5q0 26 18.5 44.5t44.5 18.5q27 0 45.5 -18.5t18.5 -44.5z" />
    <glyph glyph-name="otilde" unicode="&#xf5;" 
d="M784 168q0 -75 -46 -121.5t-122 -46.5h-368q-73 0 -120 47t-47 121v224q0 71 48.5 119.5t118.5 48.5h368q72 0 120 -48t48 -120v-224zM672 168v224q0 57 -56 57h-368q-24 0 -40 -16.5t-16 -40.5v-224q0 -56 56 -56h368q56 0 56 56zM606 772l-90 -109q-19 -19 -46 -19
q-26 0 -44.5 18.5t-18.5 45.5l-139 -65l90 109q19 19 46 19q26 0 44.5 -18.5t18.5 -44.5z" />
    <glyph glyph-name="uacute" unicode="&#xfa;" 
d="M784 168q0 -73 -47.5 -120.5t-120.5 -47.5h-368q-70 0 -118.5 48.5t-48.5 119.5v392h111v-392q0 -24 16 -40t40 -16h368q56 0 56 56v392h112v-392zM606 771l-338 -128l169 128h169z" />
    <glyph glyph-name="ugrave" unicode="&#xf9;" 
d="M784 168q0 -73 -47.5 -120.5t-120.5 -47.5h-368q-70 0 -118.5 48.5t-48.5 119.5v392h111v-392q0 -24 16 -40t40 -16h368q56 0 56 56v392h112v-392zM606 643l-338 128h169z" />
    <glyph glyph-name="ucircumflex" unicode="&#xfb;" 
d="M784 168q0 -73 -47.5 -120.5t-120.5 -47.5h-368q-70 0 -118.5 48.5t-48.5 119.5v392h111v-392q0 -24 16 -40t40 -16h368q56 0 56 56v392h112v-392zM606 643l-169 49l-169 -49l169 128z" />
    <glyph glyph-name="udieresis" unicode="&#xfc;" 
d="M784 168q0 -73 -47.5 -120.5t-120.5 -47.5h-368q-70 0 -118.5 48.5t-48.5 119.5v392h111v-392q0 -24 16 -40t40 -16h368q56 0 56 56v392h112v-392zM605 708q0 -27 -18.5 -45.5t-45.5 -18.5q-26 0 -44.5 18.5t-18.5 45.5q0 26 18.5 44.5t44.5 18.5q27 0 45.5 -18.5
t18.5 -44.5zM395 708q0 -27 -18.5 -45.5t-45.5 -18.5q-26 0 -44.5 18.5t-18.5 45.5q0 26 18.5 44.5t44.5 18.5q27 0 45.5 -18.5t18.5 -44.5z" />
    <glyph glyph-name="degree" unicode="&#xb0;" horiz-adv-x="260" 
d="M225 904q0 -39 -28 -67t-67 -28t-67 28t-28 67t28 67t67 28t67 -28t28 -67zM193 904q0 26 -18.5 45t-44.5 19t-44.5 -19t-18.5 -45t18.5 -44.5t44.5 -18.5t44.5 18.5t18.5 44.5z" />
    <glyph glyph-name="bullet" unicode="&#x2022;" horiz-adv-x="834" 
d="M754 250q0 -108 -110 -190q-96 -71 -227 -93q-131 22 -227 93q-110 82 -110 190v520h674v-520zM661 340v151h-168v168h-152v-168h-168v-151h168v-168h152v168h168z" />
    <glyph glyph-name="acute" unicode="&#xb4;" horiz-adv-x="467" 
d="M403 940l-338 -128l169 128h169z" />
    <glyph glyph-name="dieresis" unicode="&#xa8;" horiz-adv-x="467" 
d="M402 877q0 -27 -18.5 -45.5t-45.5 -18.5q-26 0 -44.5 18.5t-18.5 45.5q0 26 18.5 44.5t44.5 18.5q27 0 45.5 -18.5t18.5 -44.5zM192 877q0 -27 -18.5 -45.5t-45.5 -18.5q-26 0 -44.5 18.5t-18.5 45.5q0 26 18.5 44.5t44.5 18.5q27 0 45.5 -18.5t18.5 -44.5z" />
    <glyph glyph-name="questiondown" unicode="&#xbf;" horiz-adv-x="749" 
d="M501 737q0 -27 -18.5 -45.5t-44.5 -18.5t-44.5 18.5t-18.5 45.5q0 26 18.5 44.5t44.5 18.5t44.5 -18.5t18.5 -44.5zM694 138q-6 -88 -70 -148t-152 -60h-194q-92 0 -157.5 65.5t-65.5 158.5t65.5 159t157.5 66q41 0 69 27.5t28 69.5v111h126v-111q0 -95 -64.5 -160
t-158.5 -65q-40 0 -68 -28t-28 -69q0 -39 28 -67.5t68 -28.5h194q35 0 62 22.5t33 57.5h127z" />
    <glyph glyph-name="exclamdown" unicode="&#xa1;" horiz-adv-x="247" 
d="M182 737q0 -27 -18.5 -45.5t-45.5 -18.5q-26 0 -44.5 18.5t-18.5 45.5q0 26 18.5 44.5t44.5 18.5q27 0 45.5 -18.5t18.5 -44.5zM181 -70h-126l20 657h86z" />
    <glyph glyph-name="Agrave" unicode="&#xc0;" horiz-adv-x="1232" 
d="M1144 0h-158l-98 160h-544l-98 -160h-158l457 770h142zM809 290l-193 314l-193 -314h386zM774 812l-338 128h169z" />
    <glyph glyph-name="Atilde" unicode="&#xc3;" horiz-adv-x="1232" 
d="M1144 0h-158l-98 160h-544l-98 -160h-158l457 770h142zM809 290l-193 314l-193 -314h386zM784 941l-90 -109q-19 -19 -46 -19q-26 0 -44.5 18.5t-18.5 45.5l-139 -65l90 109q19 19 46 19q26 0 44.5 -18.5t18.5 -44.5z" />
    <glyph glyph-name="Otilde" unicode="&#xd5;" horiz-adv-x="1188" 
d="M1078 225q0 -101 -61.5 -163t-161.5 -62h-522q-98 0 -160.5 63t-62.5 162v320q0 94 65 159.5t158 65.5h522q96 0 159.5 -64t63.5 -161v-320zM949 225v320q0 43 -26 69t-68 26h-522q-40 0 -67 -27t-27 -68v-320q0 -95 94 -95h522q94 0 94 95zM774 941l-90 -109
q-19 -19 -46 -19q-26 0 -44.5 18.5t-18.5 45.5l-139 -65l90 109q19 19 46 19q26 0 44.5 -18.5t18.5 -44.5z" />
    <glyph glyph-name="quotedblleft" unicode="&#x201c;" horiz-adv-x="448" 
d="M393 870l-37 -79q36 -17 36 -57q0 -26 -18.5 -44.5t-45.5 -18.5q-26 0 -44.5 18.5t-18.5 44.5q0 30 19 46zM183 870l-37 -79q36 -17 36 -57q0 -26 -18.5 -44.5t-45.5 -18.5q-26 0 -44.5 18.5t-18.5 44.5q0 30 19 46z" />
    <glyph glyph-name="quotedblright" unicode="&#x201d;" horiz-adv-x="448" 
d="M393 807q0 -30 -19 -46l-109 -90l37 79q-36 17 -36 57q0 26 18.5 44.5t45.5 18.5q26 0 44.5 -18.5t18.5 -44.5zM183 807q0 -30 -19 -46l-109 -90l37 79q-36 17 -36 57q0 26 18.5 44.5t45.5 18.5q26 0 44.5 -18.5t18.5 -44.5z" />
    <glyph glyph-name="quoteleft" unicode="&#x2018;" horiz-adv-x="238" 
d="M183 870l-37 -79q36 -17 36 -57q0 -26 -18.5 -44.5t-45.5 -18.5q-26 0 -44.5 18.5t-18.5 44.5q0 30 19 46z" />
    <glyph glyph-name="quoteright" unicode="&#x2019;" horiz-adv-x="238" 
d="M183 807q0 -30 -19 -46l-109 -90l37 79q-36 17 -36 57q0 26 18.5 44.5t45.5 18.5q26 0 44.5 -18.5t18.5 -44.5z" />
    <glyph glyph-name="ydieresis" unicode="&#xff;" horiz-adv-x="816" 
d="M760 560l-297 -328v-232h-111v232l-296 328h136l216 -226l216 226h136zM585 708q0 -27 -18.5 -45.5t-45.5 -18.5q-26 0 -44.5 18.5t-18.5 45.5q0 26 18.5 44.5t44.5 18.5q27 0 45.5 -18.5t18.5 -44.5zM375 708q0 -27 -18.5 -45.5t-45.5 -18.5q-26 0 -44.5 18.5
t-18.5 45.5q0 26 18.5 44.5t44.5 18.5q27 0 45.5 -18.5t18.5 -44.5z" />
    <glyph glyph-name="Ydieresis" unicode="&#x178;" horiz-adv-x="1122" 
d="M1026 770l-400 -448v-322h-130v322l-400 448h153l312 -331l312 331h153zM743 877q0 -27 -18.5 -45.5t-45.5 -18.5q-26 0 -44.5 18.5t-18.5 45.5q0 26 18.5 44.5t44.5 18.5q27 0 45.5 -18.5t18.5 -44.5zM533 877q0 -27 -18.5 -45.5t-45.5 -18.5q-26 0 -44.5 18.5
t-18.5 45.5q0 26 18.5 44.5t44.5 18.5q27 0 45.5 -18.5t18.5 -44.5z" />
    <glyph glyph-name="periodcentered" unicode="&#xb7;" horiz-adv-x="237" 
d="M182 350q0 -27 -18.5 -45.5t-45.5 -18.5q-26 0 -44.5 18.5t-18.5 45.5q0 26 18.5 44.5t44.5 18.5q27 0 45.5 -18.5t18.5 -44.5z" />
    <glyph glyph-name="quotesinglbase" unicode="&#x201a;" horiz-adv-x="238" 
d="M183 -7q0 -29 -19 -45l-109 -90l37 79q-36 17 -36 56q0 27 18.5 45.5t45.5 18.5q26 0 44.5 -18.5t18.5 -45.5z" />
    <glyph glyph-name="quotedblbase" unicode="&#x201e;" horiz-adv-x="1100" 
 />
    <glyph glyph-name="Acircumflex" unicode="&#xc2;" horiz-adv-x="1232" 
d="M1144 0h-158l-98 160h-544l-98 -160h-158l457 770h142zM809 290l-193 314l-193 -314h386zM774 812l-169 49l-169 -49l169 128z" />
    <glyph glyph-name="Ecircumflex" unicode="&#xca;" horiz-adv-x="1188" 
d="M1078 0h-968v770h968v-130h-839v-190h839v-130h-839v-190h839v-130zM774 812l-169 49l-169 -49l169 128z" />
    <glyph glyph-name="Aacute" unicode="&#xc1;" horiz-adv-x="1232" 
d="M1144 0h-158l-98 160h-544l-98 -160h-158l457 770h142zM809 290l-193 314l-193 -314h386zM774 940l-338 -128l169 128h169z" />
    <glyph glyph-name="Edieresis" unicode="&#xcb;" horiz-adv-x="1188" 
d="M1078 0h-968v770h968v-130h-839v-190h839v-130h-839v-190h839v-130zM773 877q0 -27 -18.5 -45.5t-45.5 -18.5q-26 0 -44.5 18.5t-18.5 45.5q0 26 18.5 44.5t44.5 18.5q27 0 45.5 -18.5t18.5 -44.5zM563 877q0 -27 -18.5 -45.5t-45.5 -18.5q-26 0 -44.5 18.5t-18.5 45.5
q0 26 18.5 44.5t44.5 18.5q27 0 45.5 -18.5t18.5 -44.5z" />
    <glyph glyph-name="Egrave" unicode="&#xc8;" horiz-adv-x="1188" 
d="M1078 0h-968v770h968v-130h-839v-190h839v-130h-839v-190h839v-130zM774 812l-338 128h169z" />
    <glyph glyph-name="Iacute" unicode="&#xcd;" horiz-adv-x="349" 
d="M239 0h-129v770h129v-770zM342 940l-338 -128l169 128h169z" />
    <glyph glyph-name="Icircumflex" unicode="&#xce;" horiz-adv-x="349" 
d="M239 0h-129v770h129v-770zM342 812l-169 49l-169 -49l169 128z" />
    <glyph glyph-name="Idieresis" unicode="&#xcf;" horiz-adv-x="349" 
d="M239 0h-129v770h129v-770zM341 877q0 -27 -18.5 -45.5t-45.5 -18.5q-26 0 -44.5 18.5t-18.5 45.5q0 26 18.5 44.5t44.5 18.5q27 0 45.5 -18.5t18.5 -44.5zM131 877q0 -27 -18.5 -45.5t-45.5 -18.5q-26 0 -44.5 18.5t-18.5 45.5q0 26 18.5 44.5t44.5 18.5q27 0 45.5 -18.5
t18.5 -44.5z" />
    <glyph glyph-name="Igrave" unicode="&#xcc;" horiz-adv-x="349" 
d="M239 0h-129v770h129v-770zM342 812l-338 128h169z" />
    <glyph glyph-name="Oacute" unicode="&#xd3;" horiz-adv-x="1188" 
d="M1078 225q0 -101 -61.5 -163t-161.5 -62h-522q-98 0 -160.5 63t-62.5 162v320q0 94 65 159.5t158 65.5h522q96 0 159.5 -64t63.5 -161v-320zM949 225v320q0 43 -26 69t-68 26h-522q-40 0 -67 -27t-27 -68v-320q0 -95 94 -95h522q94 0 94 95zM774 940l-338 -128l169 128
h169z" />
    <glyph glyph-name="Ocircumflex" unicode="&#xd4;" horiz-adv-x="1188" 
d="M1078 225q0 -101 -61.5 -163t-161.5 -62h-522q-98 0 -160.5 63t-62.5 162v320q0 94 65 159.5t158 65.5h522q96 0 159.5 -64t63.5 -161v-320zM949 225v320q0 43 -26 69t-68 26h-522q-40 0 -67 -27t-27 -68v-320q0 -95 94 -95h522q94 0 94 95zM774 812l-169 49l-169 -49
l169 128z" />
    <glyph glyph-name="Ograve" unicode="&#xd2;" horiz-adv-x="1188" 
d="M1078 225q0 -101 -61.5 -163t-161.5 -62h-522q-98 0 -160.5 63t-62.5 162v320q0 94 65 159.5t158 65.5h522q96 0 159.5 -64t63.5 -161v-320zM949 225v320q0 43 -26 69t-68 26h-522q-40 0 -67 -27t-27 -68v-320q0 -95 94 -95h522q94 0 94 95zM774 812l-338 128h169z" />
    <glyph glyph-name="Uacute" unicode="&#xda;" horiz-adv-x="1188" 
d="M1078 770v-545q0 -98 -63 -161.5t-160 -63.5h-522q-93 0 -158 65.5t-65 159.5v545h129v-545q0 -41 27 -68t67 -27h522q43 0 68.5 25.5t25.5 69.5v545h129zM774 940l-338 -128l169 128h169z" />
    <glyph glyph-name="Ucircumflex" unicode="&#xdb;" horiz-adv-x="1188" 
d="M1078 770v-545q0 -98 -63 -161.5t-160 -63.5h-522q-93 0 -158 65.5t-65 159.5v545h129v-545q0 -41 27 -68t67 -27h522q43 0 68.5 25.5t25.5 69.5v545h129zM774 812l-169 49l-169 -49l169 128z" />
    <glyph glyph-name="Ugrave" unicode="&#xd9;" horiz-adv-x="1188" 
d="M1078 770v-545q0 -98 -63 -161.5t-160 -63.5h-522q-93 0 -158 65.5t-65 159.5v545h129v-545q0 -41 27 -68t67 -27h522q43 0 68.5 25.5t25.5 69.5v545h129zM774 812l-338 128h169z" />
    <glyph glyph-name="circumflex" unicode="&#x2c6;" horiz-adv-x="467" 
d="M403 812l-169 49l-169 -49l169 128z" />
    <glyph glyph-name="tilde" unicode="&#x2dc;" horiz-adv-x="467" 
d="M403 941l-90 -109q-19 -19 -46 -19q-26 0 -44.5 18.5t-18.5 45.5l-139 -65l90 109q19 19 46 19q26 0 44.5 -18.5t18.5 -44.5z" />
    <glyph glyph-name="cedilla" unicode="&#xb8;" horiz-adv-x="227" 
d="M162 -52q0 -47 -47 -47h-50v27h50q21 0 21 20t-21 20h-50v109h27v-82h23q47 0 47 -47z" />
    <glyph glyph-name="Yacute" unicode="&#xdd;" horiz-adv-x="1122" 
d="M1026 770l-400 -448v-322h-130v322l-400 448h153l312 -331l312 331h153zM756 940l-338 -128l169 128h169z" />
    <glyph glyph-name="minus" unicode="&#xad;" horiz-adv-x="536" 
d="M471 287h-406v126h406v-126z" />
    <glyph glyph-name="minus" unicode="&#x2212;" horiz-adv-x="536" 
d="M471 287h-406v126h406v-126z" />
  </font>
</defs>
</svg>
