<svg xmlns="http://www.w3.org/2000/svg" width="48" height="40" viewBox="0 0 48 40">
    <g fill="none" fill-rule="evenodd">
        <g>
            <g>
                <g>
                    <g>
                        <path fill="#858585" fill-rule="nonzero" d="M47.898 34.875l-5.866-4.815c-.175-.144-.433-.013-.433.22v3.201h-6.676c-1.61 0-3.26-.465-4.48-1.569-.19-.173-.485.003-.438.262.083.46.252 1.15.586 1.836.857 1.761 2.314 2.654 4.332 2.654h6.624v3.057c0 .106.058.202.148.25.09.046.198.038.28-.027l5.918-4.627c.066-.051.106-.133.107-.22.001-.086-.037-.168-.102-.222z" transform="translate(-249 -562) translate(183 121) translate(40 434) translate(26 7)"/>
                        <path fill="#858585" fill-rule="nonzero" d="M17.898 4.875L12.032.06c-.175-.144-.433-.013-.433.22V3.48H4.923c-1.61 0-3.26-.465-4.48-1.569-.19-.173-.485.003-.438.262.083.46.252 1.15.586 1.836.857 1.761 2.314 2.654 4.332 2.654h6.624v3.057c0 .106.058.202.148.25.09.046.198.038.28-.027l5.918-4.627c.066-.051.106-.133.107-.22.001-.086-.037-.168-.102-.222z" transform="translate(-249 -562) translate(183 121) translate(40 434) translate(26 7) rotate(180 9 5)"/>
                        <path fill="#858585" d="M39.166 10.496c1.105 0 2 .896 2 2v14c0 1.105-.895 2-2 2h-30c-1.105 0-2-.895-2-2v-14c0-1.104.895-2 2-2h30zm-28 12c-1.105 0-2 .896-2 2 0 1.105.895 2 2 2s2-.895 2-2c0-1.104-.895-2-2-2zm13-9c-3.314 0-6 2.686-6 6s2.686 6 6 6 6-2.686 6-6-2.686-6-6-6zm13-1c-1.105 0-2 .896-2 2 0 1.105.895 2 2 2s2-.895 2-2c0-1.104-.895-2-2-2z" transform="translate(-249 -562) translate(183 121) translate(40 434) translate(26 7)"/>
                        <path fill="#7F7F7F" fill-rule="nonzero" d="M24.353 24.496v-.902h.01c.603 0 1.116-.103 1.538-.31.421-.207.738-.48.949-.823.21-.342.316-.716.316-1.122 0-.503-.119-.91-.356-1.223-.237-.312-.525-.547-.864-.704-.34-.158-.776-.32-1.311-.485l-.282-.09v-2.142c.263.052.476.167.638.343.162.177.262.39.3.637h1.717c-.06-.623-.322-1.136-.785-1.539-.464-.402-1.087-.629-1.87-.682v-.958h-.43v.947c-.527.008-1 .102-1.418.282-.418.18-.746.436-.983.767-.237.33-.356.717-.356 1.16 0 .512.119.923.356 1.235.237.312.524.545.859.7.335.153.774.31 1.316.467l.226.068v2.21c-.301-.06-.542-.194-.723-.4-.18-.207-.286-.446-.316-.717h-1.695c.052.67.325 1.212.819 1.63.493.417 1.132.659 1.915.727v.924h.43zm-.187-6c-.323-.126-.57-.272-.742-.439-.172-.166-.258-.383-.258-.65 0-.281.088-.5.264-.655.175-.156.42-.241.736-.256v2zm0 4v-2c.32.114.566.251.74.412.173.16.26.372.26.636 0 .278-.088.505-.265.68-.177.174-.422.265-.735.272z" transform="translate(-249 -562) translate(183 121) translate(40 434) translate(26 7)"/>
                    </g>
                </g>
            </g>
        </g>
    </g>
</svg>
