<svg xmlns="http://www.w3.org/2000/svg" width="220" height="41" viewBox="0 0 220 41">
    <g fill="none" fill-rule="evenodd">
        <g fill-rule="nonzero">
            <g>
                <g>
                    <path fill="#0E0E11" d="M0 15.509C0 7.489 5.982 1.5 14.445 1.5 22.84 1.5 29 7.49 29 15.62c0 7.965-5.935 13.897-14.843 13.897h-6.88v10.548c0 .385-.055.435-.442.435H.443c-.392 0-.443-.054-.443-.435V15.51zm21.722.054c0-4.235-2.687-7.47-7.277-7.47-4.653 0-7.167 3.242-7.167 7.416v7.417h6.885c4.872 0 7.56-3.133 7.56-7.363zM49.553.5C41.053.5 35 6.745 35 15.167 35 23.142 40.442 29.5 49.997 29.5c3.666 0 7.165-.949 9.67-2.957.048-.04.079-.096.089-.157.01-.06-.002-.123-.033-.176l-3.387-4.35c-.06-.074-.145-.122-.239-.132-.094-.011-.188.016-.262.075-1.715 1.02-3.671 1.56-5.665 1.562-5 0-7.22-2.176-7.998-5.241h20.162c.07.006.14-.003.207-.025.066-.022.128-.058.18-.106.052-.047.094-.104.123-.168.03-.064.045-.134.046-.204.055-.391.11-1.84.11-2.732C62.993 6.299 57.773.5 49.553.5zm-7.555 12.38c.611-4.014 3.056-6.468 7.276-6.468 4.332 0 6.776 2.564 7.277 6.468H41.998zM82.528 1.5c2.722 0 4.713.652 5.386 1.373.115.11.115.217 0 .434L85.59 8.303c-.112.218-.224.274-.397.274-.283 0-.963-.217-2.04-.217-3.857 0-5.785 2.746-5.785 6.586v14.12c0 .384-.056.434-.449.434h-6.47c-.396 0-.448-.054-.448-.434V13.86C69.996 6.385 75.157 1.5 82.528 1.5z" transform="translate(-873 -549) translate(750 322) translate(123 227)"/>
                    <path fill="#2B008F" d="M116 20.656c0 4.669-3.669 8.844-11.282 8.844-6.187 0-9.97-2.747-11.555-4.723-.051-.06-.08-.138-.08-.217 0-.08.029-.156.08-.218l2.739-4.283c.054-.109.273-.109.383 0 1.916 1.812 4.49 3.899 8.433 3.899 2.574 0 3.833-.87 3.833-2.36 0-1.263-.986-2.144-7.721-3.956C94.487 15.933 93 12.308 93 9.344 93 4.675 96.669.5 104.28.5c6.19 0 9.969 2.747 11.555 4.723.052.06.08.138.08.217 0 .08-.028.157-.08.218l-2.737 4.29c-.056.109-.275.109-.383 0-1.918-1.813-4.49-3.912-8.435-3.912-2.575 0-3.834.88-3.834 2.362 0 1.263.986 2.143 7.722 3.956 6.354 1.713 7.832 5.338 7.832 8.302z" transform="translate(-873 -549) translate(750 322) translate(123 227)"/>
                    <path fill="#5600ED" d="M123 15.001C123 6.858 129.078.5 137.555.5 145.922.5 152 6.858 152 15.001c0 8.196-6.078 14.499-14.445 14.499-8.477 0-14.555-6.303-14.555-14.499zm14.493 7.806c4.635 0 7.25-3.456 7.25-7.75 0-4.295-2.615-7.864-7.25-7.864-4.634 0-7.25 3.569-7.25 7.863 0 4.295 2.629 7.75 7.25 7.75z" transform="translate(-873 -549) translate(750 322) translate(123 227)"/>
                    <path fill="#7A2CFF" d="M159 29.055V14.947C159 7.1 163.148 1.5 172.056 1.5 180.186 1.5 185 6.166 185 14.947v14.119c0 .384-.057.434-.438.434h-6.311c-.387 0-.438-.054-.438-.434v-13.02c0-4.392-1.383-7.684-5.81-7.684-4.426 0-5.807 3.292-5.807 7.684v13.009c0 .384-.055.434-.438.434h-6.316c-.387.004-.442-.05-.442-.434z" transform="translate(-873 -549) translate(750 322) translate(123 227)"/>
                    <path fill="#AE86FF" d="M219.566 29.5h-13.23C197.994 29.5 192 23.571 192 15.554 192 7.485 198.039 1.5 206.12 1.5c8.015 0 13.88 5.985 13.88 14v13.561c0 .385-.054.439-.434.439zm-13.23-6.587h6.533V15.5c0-4.171-2.47-7.41-6.752-7.41-4.344 0-6.973 3.239-6.973 7.464 0 4.226 2.577 7.359 7.188 7.359h.005z" transform="translate(-873 -549) translate(750 322) translate(123 227)"/>
                </g>
            </g>
        </g>
    </g>
</svg>
