<svg xmlns="http://www.w3.org/2000/svg" width="54" height="54" viewBox="0 0 54 54">
    <defs>
        <linearGradient id="oalyvvy68a" x1="35.019%" x2="67.721%" y1="39.758%" y2="84.553%">
            <stop offset="0%" stop-color="#FB6E00"/>
            <stop offset="100%" stop-color="#FA3800"/>
        </linearGradient>
    </defs>
    <g fill="none" fill-rule="evenodd">
        <g>
            <g>
                <g>
                    <g>
                        <g>
                            <g transform="translate(-1172 -806) translate(1083) translate(34 727) translate(22 29) translate(0 50) translate(33)">
                                <circle cx="26.507" cy="26.507" r="26.507" fill="url(#oalyvvy68a)"/>
                                <g>
                                    <g fill-rule="nonzero">
                                        <path fill="#ECECEC" d="M15.976 12.347l-4.233-4.234 4.233-4.233c.16-.16.251-.378.251-.605 0-.227-.09-.445-.25-.605L13.556.25c-.334-.333-.876-.333-1.21 0L8.114 4.485 3.88.251c-.334-.334-.876-.334-1.21 0L.25 2.67c-.333.334-.333.875 0 1.21l4.234 4.234-4.233 4.233c-.334.334-.334.876 0 1.21l2.419 2.42c.16.16.378.25.605.25.227 0 .444-.09.605-.25l4.234-4.235 4.233 4.234c.16.16.378.251.605.251.227 0 .445-.09.605-.25l2.42-2.42c.333-.334.333-.876 0-1.21z" transform="translate(9.22 4.61) translate(0 13.254)"/>
                                        <path fill="#FFF" d="M.25 13.557l2.42 2.42c.16.16.378.25.605.25.227 0 .444-.09.605-.25l4.233-4.234V4.484L3.88.251c-.334-.335-.876-.335-1.21 0L.25 2.67c-.333.334-.333.875 0 1.21l4.234 4.234-4.233 4.233c-.335.334-.335.876 0 1.21z" transform="translate(9.22 4.61) translate(0 13.254)"/>
                                    </g>
                                    <text fill="#FFF" font-family="Poppins-Bold, Poppins" font-size="29.158" font-weight="bold" transform="translate(9.22 4.61)">
                                        <tspan x="19.459" y="31">P</tspan>
                                    </text>
                                </g>
                            </g>
                        </g>
                    </g>
                </g>
            </g>
        </g>
    </g>
</svg>
