<svg xmlns="http://www.w3.org/2000/svg" width="66" height="21" viewBox="0 0 66 21">
    <g fill="none" fill-rule="evenodd">
        <g fill-rule="nonzero">
            <g>
                <g>
                    <g>
                        <g>
                            <g fill="#293688">
                                <path d="M17.745 19.371L21.046.42 26.39.42 23.089 19.371zM42.114.91c-1.06-.384-2.718-.795-4.79-.795-5.282 0-9.002 2.57-9.034 6.254-.03 2.722 2.655 4.24 4.684 5.148 2.08.927 2.78 1.522 2.77 2.35-.014 1.27-1.663 1.852-3.2 1.852-2.138-.001-3.275-.288-5.03-.995l-.689-.302-.75 4.242c1.248.53 3.557.989 5.954 1.012 5.617-.001 9.265-2.54 9.306-6.475.02-2.156-1.403-3.796-4.487-5.15-1.868-.875-3.013-1.46-3-2.348 0-.788.969-1.63 3.06-1.63 1.748-.026 3.015.342 4.002.726l.478.219.726-4.108zM51.225.42c-1.28 0-2.205.38-2.768 1.614l-7.92 17.338h5.658l1.1-2.904h6.76l.628 2.904h5.03L55.314.42h-4.088V.42zm-2.429 12.256c.442-1.092 2.129-5.297 2.129-5.297-.03.05.44-1.097.709-1.808l.362 1.633 1.237 5.472h-4.437zM8 13.41l-.471-2.597C6.554 7.784 3.527 4.507.135 2.866L4.856 19.37h5.66L19.003.42h-5.658L8 13.41z" transform="translate(-570 -574) translate(183 121) translate(40 434) translate(330) translate(17 19) translate(5.675 .111)"/>
                            </g>
                            <path fill="#F7981D" d="M0 .531v.306C6.706 2.405 11.361 6.37 13.204 10.924l-1.937-8.776C10.943.95 9.963.573 8.803.531H0z" transform="translate(-570 -574) translate(183 121) translate(40 434) translate(330) translate(17 19)"/>
                        </g>
                    </g>
                </g>
            </g>
        </g>
    </g>
</svg>
